<svg width="1500" height="755" viewBox="0 0 1500 755" fill="none" xmlns="http://www.w3.org/2000/svg">
<path d="M204.748 158.302C228.695 158.092 252.4 163.097 274.218 172.97C295.326 182.47 314.311 196.112 330.047 213.087C346.019 230.366 358.546 250.535 366.954 272.512C384.585 319.372 384.585 371.043 366.954 417.903C358.546 439.901 346.02 460.093 330.047 477.398C314.298 494.363 295.316 508.009 274.218 517.534C252.406 527.426 228.706 532.463 204.756 532.298C184.085 532.363 163.58 528.609 144.273 521.225C127.231 515.225 111.711 505.564 98.8035 492.922L84.3692 523.738L9.25913e-07 523.738L1.53343e-09 0.867379L98.7961 0.867379L98.7961 197.264C125.992 171.29 161.309 158.302 204.748 158.302ZM191.152 444.235C203.644 444.325 215.999 441.632 227.321 436.351C238.428 431.185 248.496 424.03 257.027 415.238C265.76 406.291 272.629 395.698 277.237 384.076C286.786 359.297 286.786 331.853 277.237 307.074C272.7 295.313 265.825 284.593 257.027 275.565C248.505 266.755 238.435 259.589 227.321 254.423C216.022 249.084 203.674 246.331 191.178 246.365C178.918 246.279 166.717 248.087 155.009 251.725C144.05 255.163 134.011 261.038 125.646 268.91C116.816 277.544 110.081 288.085 105.956 299.726C100.787 314.808 98.3625 330.693 98.7961 346.631C98.476 361.391 100.904 376.083 105.956 389.955C110.196 401.329 116.923 411.611 125.646 420.051C134.093 427.987 144.09 434.088 155.009 437.971C166.609 442.104 178.842 444.176 191.156 444.095L191.152 444.235ZM425.293 -7.51872e-07L524.119 -9.26585e-07L524.119 523.631L425.293 523.631L425.293 -7.51872e-07ZM692.344 523.631L593.552 523.631L593.552 168.386L692.348 168.386L692.344 523.631ZM642.948 119.628C635.779 119.704 628.667 118.347 622.03 115.638C615.392 112.929 609.363 108.922 604.294 103.851C599.225 98.7808 595.22 92.7494 592.513 86.1106C589.806 79.4718 588.451 72.3592 588.529 65.19C588.401 57.9566 589.73 50.7715 592.439 44.0631C595.147 37.3546 599.178 31.2602 604.291 26.1432C609.353 21.0386 615.375 16.987 622.01 14.222C628.645 11.457 635.762 10.0335 642.95 10.0335C650.138 10.0335 657.255 11.457 663.89 14.222C670.525 16.987 676.547 21.0386 681.608 26.1432C686.722 31.2602 690.753 37.3546 693.461 44.0631C696.169 50.7715 697.499 57.9566 697.371 65.19C697.45 72.3598 696.096 79.4732 693.39 86.1129C690.683 92.7526 686.678 98.7849 681.609 103.856C676.54 108.927 670.51 112.934 663.871 115.643C657.233 118.353 650.121 119.709 642.951 119.632L642.948 119.628ZM950.821 168.382C965.795 168.599 980.694 170.538 995.224 174.159C1012.85 178.3 1029.34 186.293 1043.51 197.565C1057.69 208.837 1069.19 223.108 1077.19 239.352C1086.96 257.989 1091.86 282.104 1091.88 311.696L1091.88 523.624L992.334 523.624L992.334 315.161C992.629 305.569 990.795 296.031 986.964 287.232C983.729 280.044 978.771 273.765 972.53 268.95C966.428 264.354 959.512 260.953 952.146 258.926C944.689 256.807 936.976 255.727 929.224 255.718C922.313 255.816 915.451 256.896 908.844 258.926C901.35 261.123 894.31 264.644 888.058 269.323C881.44 274.333 875.951 280.68 871.948 287.951C867.497 296.315 865.279 305.686 865.508 315.158L865.508 523.628L766.8 523.628L766.8 168.386L851.317 168.386L865.755 195.592C877.656 187.261 890.667 180.64 904.407 175.923C919.341 170.802 935.035 168.254 950.821 168.386L950.821 168.382ZM1350.33 315.948L1500 523.639L1381.86 523.639L1288.05 381.82L1252.99 419.664L1252.99 523.639L1154.16 523.639L1154.16 0.867377L1252.99 0.867377L1252.99 290.812L1368.23 168.382L1480.82 168.382L1350.33 315.948Z" fill="url(#paint0_linear_124_30)"/>
<mask id="mask0_124_30" style="mask-type:alpha" maskUnits="userSpaceOnUse" x="0" y="575" width="1493" height="180">
<path d="M0.707031 750V600.805H22.452V614.497C30.5057 604.429 43.3916 598.389 58.895 598.389C89.9017 598.389 113.459 622.953 113.459 655.168C113.459 687.383 90.103 712.148 58.895 712.148C44.3983 712.148 31.5124 706.913 23.4587 697.047V750H0.707031ZM56.6802 691.007C75.8077 691.007 89.9017 675.906 89.9017 655.168C89.9017 634.631 75.8077 619.53 56.6802 619.53C37.5527 619.53 23.4587 634.631 23.4587 655.168C23.4587 675.906 37.5527 691.007 56.6802 691.007Z" fill="url(#paint1_linear_124_30)"/>
<path d="M274.92 712.148C252.772 712.148 237.873 699.866 237.873 680.94C237.873 663.423 249.55 650.537 274.718 646.309L309.349 640.671V636.443C309.349 625.772 300.691 618.121 287.604 618.121C275.524 618.121 266.06 624.966 261.832 635.034L242.906 625.57C249.148 609.664 267.47 598.389 288.208 598.389C313.98 598.389 332.101 613.893 332.101 636.443V709.731H310.356V697.047C302.101 706.711 290.02 712.148 274.92 712.148ZM261.631 680.134C261.631 688.389 268.678 694.228 278.544 694.228C296.866 694.228 309.349 681.141 309.349 664.429V658.591L279.148 663.825C267.067 665.839 261.631 671.678 261.631 680.134Z" fill="url(#paint2_linear_124_30)"/>
<path d="M475.079 754.228C469.844 754.228 464.408 753.423 459.978 751.409V731.879C463.2 732.685 468.032 733.49 472.461 733.49C484.945 733.49 489.777 728.054 494.609 716.577L497.629 709.731L454.341 600.805H478.703L509.307 680.738L539.911 600.805H564.475L516.354 721.611C508.502 741.141 495.817 754.228 475.079 754.228Z" fill="url(#paint3_linear_124_30)"/>
<path d="M686.757 709.731V600.805H708.502V614.295C714.543 603.825 725.616 598.389 738.905 598.389C753.603 598.389 766.489 605.436 772.932 616.913C780.18 604.631 792.462 598.389 806.959 598.389C829.71 598.389 847.428 615.302 847.428 639.262V709.731H824.677V645.503C824.677 629.396 815.415 619.53 801.724 619.53C788.032 619.53 778.368 629.396 778.368 645.503V709.731H755.818V645.503C755.818 629.396 746.355 619.53 732.663 619.53C718.972 619.53 709.509 629.396 709.509 645.503V709.731H686.757Z" fill="url(#paint4_linear_124_30)"/>
<path d="M1029.63 712.148C997.015 712.148 974.062 687.181 974.062 654.966C974.062 622.349 997.216 598.389 1027.82 598.389C1060.64 598.389 1079.77 622.953 1079.77 651.141C1079.77 654.564 1079.57 658.591 1078.76 661.812H997.82C999.23 680.134 1012.72 692.013 1029.83 692.013C1042.92 692.013 1052.18 685.369 1057.62 676.107L1076.14 685.168C1069.5 700.671 1051.78 712.148 1029.63 712.148ZM1027.82 617.517C1013.12 617.517 1001.04 627.181 998.223 643.691H1055.61C1054.8 628.188 1043.12 617.517 1027.82 617.517Z" fill="url(#paint5_linear_124_30)"/>
<path d="M1208.68 709.731V600.805H1230.43V614.094C1236.67 603.825 1247.74 598.389 1261.23 598.389C1284.99 598.389 1302.31 615.302 1302.31 639.262V709.731H1279.76V645.503C1279.76 629.396 1269.89 619.53 1255.59 619.53C1241.5 619.53 1231.43 629.396 1231.43 645.503V709.731H1208.68Z" fill="url(#paint6_linear_124_30)"/>
<path d="M1480.48 710.94C1457.53 710.94 1444.44 697.45 1444.44 674.094V621.342H1425.31V600.805H1428.33C1438.4 600.805 1444.44 594.564 1444.44 584.295V575.839H1467.19V600.805H1491.96V621.342H1467.19V673.087C1467.19 684.161 1472.23 690.805 1485.31 690.805C1487.33 690.805 1490.15 690.604 1492.76 690.201V709.731C1489.14 710.336 1484.11 710.94 1480.48 710.94Z" fill="url(#paint7_linear_124_30)"/>
</mask>
<g mask="url(#mask0_124_30)">
<rect x="-17.6172" y="576.343" width="1517.62" height="178.691" fill="url(#paint8_linear_124_30)"/>
</g>
<defs>
<linearGradient id="paint0_linear_124_30" x1="235.825" y1="450.15" x2="1785.39" y2="97.6369" gradientUnits="userSpaceOnUse">
<stop stop-color="#3D9EFF"/>
<stop offset="1" stop-color="#1958D2"/>
</linearGradient>
<linearGradient id="paint1_linear_124_30" x1="-0.000828114" y1="576.343" x2="51.4497" y2="932.815" gradientUnits="userSpaceOnUse">
<stop stop-color="#56ABFF"/>
<stop offset="1" stop-color="#236CDF"/>
</linearGradient>
<linearGradient id="paint2_linear_124_30" x1="-0.000828114" y1="576.343" x2="51.4497" y2="932.815" gradientUnits="userSpaceOnUse">
<stop stop-color="#56ABFF"/>
<stop offset="1" stop-color="#236CDF"/>
</linearGradient>
<linearGradient id="paint3_linear_124_30" x1="-0.000828114" y1="576.343" x2="51.4497" y2="932.815" gradientUnits="userSpaceOnUse">
<stop stop-color="#56ABFF"/>
<stop offset="1" stop-color="#236CDF"/>
</linearGradient>
<linearGradient id="paint4_linear_124_30" x1="-0.000828114" y1="576.343" x2="51.4497" y2="932.815" gradientUnits="userSpaceOnUse">
<stop stop-color="#56ABFF"/>
<stop offset="1" stop-color="#236CDF"/>
</linearGradient>
<linearGradient id="paint5_linear_124_30" x1="-0.000828114" y1="576.343" x2="51.4497" y2="932.815" gradientUnits="userSpaceOnUse">
<stop stop-color="#56ABFF"/>
<stop offset="1" stop-color="#236CDF"/>
</linearGradient>
<linearGradient id="paint6_linear_124_30" x1="-0.000828114" y1="576.343" x2="51.4497" y2="932.815" gradientUnits="userSpaceOnUse">
<stop stop-color="#56ABFF"/>
<stop offset="1" stop-color="#236CDF"/>
</linearGradient>
<linearGradient id="paint7_linear_124_30" x1="-0.000828114" y1="576.343" x2="51.4497" y2="932.815" gradientUnits="userSpaceOnUse">
<stop stop-color="#56ABFF"/>
<stop offset="1" stop-color="#236CDF"/>
</linearGradient>
<linearGradient id="paint8_linear_124_30" x1="390.101" y1="606.544" x2="416.972" y2="865.378" gradientUnits="userSpaceOnUse">
<stop stop-color="#3D9EFF"/>
<stop offset="1" stop-color="#236CDF"/>
</linearGradient>
</defs>
</svg>
